<?xml version="1.0" encoding="utf-8"?>
<!-- Generator: Adobe Illustrator 24.3.0, SVG Export Plug-In . SVG Version: 6.00 Build 0)  -->
<svg version="1.1" id="Livello_1" xmlns="http://www.w3.org/2000/svg" xmlns:xlink="http://www.w3.org/1999/xlink" x="0px" y="0px"
	 viewBox="0 0 1041.9 207.4" style="enable-background:new 0 0 1041.9 207.4;" xml:space="preserve">
<style type="text/css">
	.st0{fill:#FFFFFF;}
	.st1{fill:#04143A;}
</style>
<g id="Livello_1-2">
	<path class="st0" d="M1001.1,0H100.2C77.7,0,59.4,18.3,59.4,40.8l0,0v69.5C56,186.9,0,207.4,0,207.4c29.7,0,53.8-4.7,72.6-10.8
		c7.5,7,17.4,10.8,27.6,10.8h900.9c22.5,0,40.8-18.3,40.8-40.8V40.8C1041.9,18.3,1023.7,0,1001.1,0z"/>
	<path class="st1" d="M100.9,160V43.5h39.8c13.6,0,24.9,2.4,33.7,7.2c8.5,4.5,15.4,11.6,19.6,20.3c4.3,8.7,6.4,18.9,6.4,30.7
		s-2.1,22-6.4,30.7c-4.2,8.7-11.1,15.8-19.6,20.3c-8.8,4.8-20,7.2-33.7,7.2h-39.8V160z M122.2,141.7h17.5c9.8,0,17.5-1.6,23.1-4.8
		c5.5-3,9.8-7.8,12.2-13.7c2.4-5.9,3.7-13.1,3.7-21.6c0-8.3-1.2-15.5-3.7-21.5c-2.3-5.9-6.7-10.8-12.2-13.8
		c-5.7-3.2-13.4-4.8-23.1-4.8h-17.5V141.7z"/>
	<path class="st1" d="M196.9,160l42.6-116.5h24L306.1,160h-22.6l-9.3-27h-45.4l-9.5,27H196.9z M234.5,116.4h33.8l-17-48.4
		L234.5,116.4z"/>
	<path class="st1" d="M361.7,162c-11.7,0-21.8-2.6-30.5-7.7c-8.7-5-15.8-12.4-20.5-21.2c-4.9-9-7.4-19.5-7.4-31.4s2.5-22.3,7.4-31.4
		c4.7-8.8,11.8-16.2,20.5-21.2c8.7-5.1,18.9-7.7,30.5-7.7c11.5,0,21.7,2.6,30.5,7.7c8.7,5,15.8,12.4,20.5,21.2
		c4.9,9,7.3,19.5,7.3,31.4s-2.4,22.3-7.3,31.4c-4.7,8.9-11.8,16.2-20.5,21.2C383.4,159.4,373.2,162,361.7,162z M361.7,142.9
		c11.1,0,19.9-3.7,26.5-11s9.9-17.4,9.9-30.1c0-12.8-3.3-22.8-9.9-30.1s-15.4-11-26.5-11s-20,3.7-26.6,11c-6.7,7.3-10,17.4-10,30.1
		c0,12.8,3.3,22.8,10,30.1C341.8,139.2,350.6,142.8,361.7,142.9L361.7,142.9z"/>
	<path class="st1" d="M465.1,162c-6.6,0.1-13.2-1.1-19.3-3.6c-5.2-2.1-9.8-5.5-13.3-9.9c-3.3-4.2-5.4-9.3-6-14.6H448
		c0.7,3.3,2.7,6.3,5.4,8.2c2.9,2.3,6.7,3.4,11.4,3.4c4.7,0,8.1-0.9,10.2-2.8c2-1.6,3.2-4,3.2-6.5c0-3.6-1.6-6-4.7-7.2
		c-4.2-1.6-8.6-2.9-13-3.7c-3.6-0.8-7.2-1.7-10.8-2.8c-3.5-1-6.9-2.5-10.1-4.2c-2.9-1.6-5.5-3.9-7.4-6.7c-2-3-3-6.5-2.8-10.1
		c0-7.3,2.9-13.5,8.7-18.5s14-7.5,24.5-7.5c9.8,0,17.6,2.3,23.4,6.8c5.8,4.6,9.3,10.8,10.4,18.8h-20.1c-1.2-6.1-5.8-9.2-13.8-9.2
		c-4,0-7.1,0.8-9.2,2.3c-2,1.3-3.2,3.5-3.2,5.8c0,2.4,1.6,4.4,4.8,5.8c4.1,1.7,8.4,3.1,12.8,4c5.8,1.3,11.1,2.8,15.9,4.4
		c4.4,1.4,8.4,3.8,11.6,7.2c2.9,3.2,4.3,7.7,4.3,13.6c0.2,4.9-1.2,9.8-4,13.8c-3,4.3-7.2,7.6-12,9.6
		C477.7,161,471.4,162.1,465.1,162z"/>
	<path class="st1" d="M553.3,162c-7.8,0.2-15.5-1.7-22.3-5.5c-6.4-3.6-11.7-8.9-15.2-15.3c-3.8-6.9-5.7-14.6-5.6-22.5
		c-0.1-7.9,1.8-15.6,5.6-22.5c3.6-6.4,8.8-11.7,15.2-15.3c6.8-3.8,14.5-5.7,22.3-5.5c10.5,0,19.4,2.7,26.6,8.2
		c7.2,5.5,11.8,13.1,13.8,22.7h-22.5c-1-3.8-3.3-7.2-6.6-9.4c-8.4-5.6-19.7-4.2-26.5,3.2c-4.1,4.4-6.2,10.6-6.2,18.4
		s2.1,14,6.2,18.5c3.8,4.3,9.3,6.7,15,6.7c4.1,0.1,8.1-1.1,11.6-3.3c3.3-2.2,5.6-5.6,6.6-9.5h22.5c-1.7,8.9-6.6,16.9-13.8,22.5
		C572.7,159.2,563.9,162,553.3,162z"/>
	<path class="st1" d="M644,162c-7.5,0.1-15-1.8-21.6-5.5c-6.3-3.6-11.6-8.9-15.2-15.2c-3.8-6.9-5.7-14.7-5.6-22.6
		c-0.2-7.9,1.8-15.7,5.7-22.6c3.6-6.3,8.9-11.6,15.2-15.2c13.4-7.3,29.6-7.3,43,0c6.3,3.6,11.6,8.9,15.1,15.2
		c3.8,6.9,5.7,14.7,5.6,22.6c0.2,7.9-1.8,15.7-5.6,22.6c-3.6,6.4-8.9,11.6-15.2,15.2C659,160.2,651.5,162.1,644,162z M644,143.5
		c5.5,0,10.7-2.2,14.5-6.2c4.1-4.2,6.2-10.4,6.2-18.6s-2.1-14.4-6.2-18.6c-7.5-8-20.1-8.4-28-0.8c-0.3,0.3-0.6,0.6-0.8,0.8
		c-4.1,4.2-6.1,10.3-6.1,18.6c0,8.2,2,14.4,6.1,18.6C633.3,141.3,638.5,143.5,644,143.5L644,143.5z"/>
	<path class="st1" d="M726.9,162c-10.3,0-18.3-3.2-23.9-9.7s-8.4-15.9-8.4-28.3V77.4h21.1V122c0,7.1,1.4,12.5,4.3,16.3
		c2.9,3.8,7.4,5.7,13.6,5.7c5.6,0.1,10.9-2.2,14.6-6.3c3.8-4.2,5.7-10.1,5.7-17.6V77.4h21.3V160h-18.8l-1.7-14
		c-2.5,4.8-6.4,8.9-11.1,11.6C738.7,160.6,732.9,162.1,726.9,162z"/>
	<path class="st1" d="M788.9,160V77.4h19l2,15.5c2.9-5.2,7.1-9.6,12.2-12.7c5.5-3.3,11.8-4.9,18.2-4.8v22.5h-6
		c-4.3-0.1-8.5,0.7-12.5,2.2c-3.6,1.4-6.7,4.1-8.6,7.5c-2,3.6-3.1,8.5-3.1,14.8V160H788.9z"/>
	<path class="st1" d="M881.6,162c-6.6,0.1-13.2-1.1-19.3-3.6c-5.2-2.1-9.8-5.5-13.3-9.9c-3.3-4.2-5.4-9.3-6-14.6h21.5
		c0.7,3.3,2.7,6.3,5.4,8.2c2.9,2.3,6.7,3.4,11.4,3.4s8.1-0.9,10.2-2.8c2-1.6,3.2-4,3.2-6.5c0-3.6-1.6-6-4.7-7.2
		c-4.2-1.6-8.6-2.8-13-3.7c-3.6-0.8-7.2-1.7-10.8-2.8c-3.5-1-6.9-2.5-10.1-4.2c-2.9-1.6-5.5-3.9-7.4-6.7c-2-3-2.9-6.5-2.8-10.1
		c0-7.3,2.9-13.5,8.7-18.5s14-7.5,24.6-7.5c9.8,0,17.6,2.3,23.4,6.8c5.8,4.6,9.3,10.8,10.4,18.8h-20.2c-1.2-6.1-5.8-9.2-13.8-9.2
		c-4,0-7.1,0.8-9.2,2.3c-2,1.3-3.2,3.5-3.2,5.8c0,2.4,1.6,4.4,4.8,5.8c4.1,1.7,8.4,3.1,12.8,4c5.8,1.3,11.1,2.8,15.9,4.4
		c4.4,1.4,8.4,3.8,11.6,7.2c2.9,3.2,4.3,7.7,4.3,13.6c0.2,4.9-1.2,9.8-4,13.8c-3,4.3-7.2,7.6-12,9.6
		C894.2,161,887.9,162.1,881.6,162z"/>
	<path class="st1" d="M965.7,162c-7.7,0.1-15.3-1.7-22.2-5.3c-6.4-3.5-11.6-8.7-15.1-15c-3.8-6.8-5.7-14.5-5.5-22.3
		c-0.1-7.9,1.7-15.8,5.4-22.8c3.4-6.5,8.6-11.9,15-15.6s13.9-5.6,22.6-5.6c7.5-0.1,14.9,1.7,21.5,5.3c6.1,3.4,11.1,8.5,14.6,14.6
		c3.5,6.3,5.3,13.4,5.2,20.6c0,1.2,0,2.5-0.1,3.8s-0.1,2.7-0.2,4.2H944c0.5,6.4,2.7,11.5,6.8,15.1c4,3.7,9.3,5.6,14.7,5.5
		c3.8,0.1,7.6-0.9,10.9-2.9c2.9-1.8,5.2-4.5,6.6-7.6h21.6c-1.6,5.2-4.2,10.1-7.7,14.2c-3.6,4.3-8.2,7.7-13.3,10.1
		C977.9,160.8,971.8,162.1,965.7,162z M965.8,92.7c-5-0.1-9.8,1.5-13.8,4.4s-6.5,7.4-7.7,13.4h41.1c-0.3-5.4-2.3-9.8-6-13
		C975.7,94.3,970.8,92.6,965.8,92.7L965.8,92.7z"/>
</g>
</svg>
