<?xml version="1.0" encoding="utf-8"?>
<!-- Generator: Adobe Illustrator 24.3.0, SVG Export Plug-In . SVG Version: 6.00 Build 0)  -->
<svg version="1.1" id="Livello_1" xmlns="http://www.w3.org/2000/svg" xmlns:xlink="http://www.w3.org/1999/xlink" x="0px" y="0px"
	 viewBox="0 0 454.8 207.4" style="enable-background:new 0 0 454.8 207.4;" xml:space="preserve">
<style type="text/css">
	.st0{fill:#0055FF;}
	.st1{fill:#FFFFFF;}
</style>
<g id="Livello_2_1_">
	<g id="Livello_1-2">
		<path class="st0" d="M414,0H100.2C77.7,0,59.4,18.3,59.4,40.8l0,0v69.5C56,186.9,0,207.4,0,207.4c29.7,0,53.8-4.7,72.6-10.8
			c7.5,7,17.4,10.8,27.6,10.8H414c22.5,0,40.8-18.3,40.8-40.8V40.8C454.8,18.3,436.5,0,414,0z"/>
		<path class="st1" d="M100.9,160V43.5h39.8c13.6,0,24.9,2.4,33.7,7.2c8.5,4.5,15.4,11.6,19.6,20.3c4.3,8.7,6.4,18.9,6.4,30.7
			s-2.1,22-6.4,30.7c-4.2,8.7-11.1,15.8-19.6,20.3c-8.8,4.8-20,7.2-33.7,7.2h-39.8C100.9,159.9,100.9,160,100.9,160z M122.2,141.7
			h17.5c9.8,0,17.5-1.6,23.1-4.8c5.5-3,9.8-7.8,12.2-13.7s3.7-13.1,3.7-21.6c0-8.3-1.2-15.5-3.7-21.5c-2.3-5.9-6.7-10.8-12.2-13.8
			c-5.7-3.2-13.4-4.8-23.1-4.8h-17.5V141.7z"/>
		<path class="st1" d="M196.9,160l42.6-116.5h24L306.1,160h-22.6l-9.3-27h-45.4l-9.5,27H196.9z M234.5,116.4h33.8l-17-48.4
			L234.5,116.4z"/>
		<path class="st1" d="M361.7,162c-11.7,0-21.8-2.6-30.5-7.7c-8.7-5-15.8-12.4-20.5-21.2c-4.9-9-7.4-19.5-7.4-31.4
			s2.5-22.3,7.4-31.4c4.7-8.8,11.8-16.2,20.5-21.2c8.7-5.1,18.9-7.7,30.5-7.7c11.5,0,21.7,2.6,30.5,7.7c8.7,5,15.8,12.4,20.5,21.2
			c4.9,9,7.3,19.5,7.3,31.4s-2.4,22.3-7.3,31.4c-4.7,8.9-11.8,16.2-20.5,21.2C383.4,159.4,373.2,162,361.7,162z M361.7,142.9
			c11.1,0,19.9-3.7,26.5-11s9.9-17.4,9.9-30.1c0-12.8-3.3-22.8-9.9-30.1s-15.4-11-26.5-11s-20,3.7-26.6,11c-6.7,7.3-10,17.4-10,30.1
			c0,12.8,3.3,22.8,10,30.1C341.8,139.2,350.6,142.8,361.7,142.9L361.7,142.9z"/>
	</g>
</g>
</svg>
